HIERARCHY
ROOT boneTorso
{
	OFFSET 0.000000 -0.000000 0.798061
	CHANNELS 6 Xposition Yposition Zposition Xrotation Yrotation Zrotation
	JOINT boneHead
	{
		OFFSET 0.000000 0.000000 0.675000
		CHANNELS 3 Xrotation Yrotation Zrotation
		End Site
		{
			OFFSET 0.000000 -0.000000 0.500000
		}
	}
	JOINT boneLegRU
	{
		OFFSET 0.000000 0.125000 0.000000
		CHANNELS 6 Xposition Yposition Zposition Xrotation Yrotation Zrotation
		JOINT boneLegRD
		{
			OFFSET 0.000000 0.000000 -0.375000
			CHANNELS 3 Xrotation Yrotation Zrotation
			JOINT boneFootR
			{
				OFFSET 0.000000 0.000000 -0.375000
				CHANNELS 3 Xrotation Yrotation Zrotation
				End Site
				{
					OFFSET 0.000000 0.000000 -0.075000
				}
			}
		}
	}
	JOINT boneLegLU
	{
		OFFSET 0.000000 -0.125000 0.000000
		CHANNELS 6 Xposition Yposition Zposition Xrotation Yrotation Zrotation
		JOINT boneLegLD
		{
			OFFSET 0.000000 0.000000 -0.375000
			CHANNELS 3 Xrotation Yrotation Zrotation
			JOINT boneFootL
			{
				OFFSET 0.000000 0.000000 -0.375000
				CHANNELS 3 Xrotation Yrotation Zrotation
				End Site
				{
					OFFSET 0.000000 0.000000 -0.075000
				}
			}
		}
	}
	JOINT boneArmRU
	{
		OFFSET 0.000000 0.350000 0.675000
		CHANNELS 6 Xposition Yposition Zposition Xrotation Yrotation Zrotation
		JOINT boneArmRD
		{
			OFFSET 0.000000 0.000000 -0.375000
			CHANNELS 3 Xrotation Yrotation Zrotation
			End Site
			{
				OFFSET 0.000000 0.000000 -0.300000
			}
		}
	}
	JOINT boneArmLU
	{
		OFFSET 0.000000 -0.350000 0.675000
		CHANNELS 6 Xposition Yposition Zposition Xrotation Yrotation Zrotation
		JOINT boneArmLD
		{
			OFFSET 0.000000 0.000000 -0.375000
			CHANNELS 3 Xrotation Yrotation Zrotation
			End Site
			{
				OFFSET 0.000000 0.000000 -0.300000
			}
		}
		JOINT boneItemInHand
		{
			OFFSET 0.000000 0.000000 -0.673061
			CHANNELS 6 Xposition Yposition Zposition Xrotation Yrotation Zrotation
			End Site
			{
				OFFSET 0.000000 0.000000 -0.140000
			}
		}
	}
}
MOTION
Frames: 8
Frame Time: 0.100000
0.000000 -0.000000 0.798061 0.000000 0.000000 -0.000000 -0.000000 0.000000 -0.000000 -0.000000 0.125000 -0.000000 0.000000 -0.000000 -0.000000 0.000000 -0.000000 -0.000000 0.000000 0.000000 -0.000000 -0.000000 -0.125000 0.000000 0.000000 0.000000 -0.000000 0.000000 0.000000 0.000000 -0.000000 0.000000 -0.000000 0.000000 0.350000 0.675000 0.000000 -0.000000 -0.000000 -0.000000 -0.000000 0.000000 0.000000 -0.350000 0.675000 0.000005 -87.749674 -0.000011 -0.000000 0.000000 0.000000 -0.000000 -0.000000 -0.673061 0.000010 87.749674 0.000006 
-0.001431 -0.000000 0.769130 0.000000 -3.571500 0.000000 -0.223531 -0.167329 0.175888 0.000000 0.125000 0.000000 0.286966 -0.160187 0.013932 -0.000000 0.000000 -0.000000 0.000000 0.000000 -0.000000 0.000000 -0.125000 0.000000 -0.000000 -0.207998 -0.000000 0.000000 0.000000 0.000000 0.000000 0.000000 0.000000 -0.000000 0.350000 0.675000 1.627237 0.126508 0.380704 0.956661 -0.074249 0.148408 -0.000000 -0.350000 0.675000 -10.240134 -83.940839 -9.622820 -0.000000 -0.000000 -0.000000 -0.000000 -0.000000 -0.673061 14.216525 87.532972 -13.153008 
-0.005663 -0.000000 0.683539 0.000002 -14.592610 0.000000 -0.882045 -0.666506 0.692582 0.000000 0.125000 0.000000 1.136460 -0.633801 0.059862 0.000000 -0.000000 0.000000 -0.000000 0.000001 -0.000000 0.000000 -0.125000 0.000000 -0.000000 -0.823421 -0.000000 0.000000 0.000001 0.000000 0.000000 0.000001 -0.000000 -0.000000 0.350000 0.675000 6.475510 0.567273 1.492837 3.795608 -0.279783 0.595660 0.000000 -0.350000 0.675000 -15.060422 -71.919256 -12.497406 -0.000000 0.000000 -0.000000 -0.000000 -0.000000 -0.673061 35.725697 86.431755 -31.147008 
-0.012112 -0.000000 0.553131 0.000004 -32.388081 0.000001 -1.877257 -1.438655 1.469185 -0.000000 0.125000 0.000000 2.432258 -1.354249 0.143380 0.000000 0.000004 -0.000000 0.000000 0.000001 -0.000000 0.000000 -0.125000 0.000000 -0.000000 -1.761242 -0.000000 0.000000 0.000003 0.000000 -0.000000 -0.000000 0.000000 0.000000 0.350000 0.675000 13.925525 1.425435 3.122774 8.139483 -0.550562 1.297785 0.000000 -0.350000 0.675000 -17.763905 -52.194578 -11.844116 0.000000 -0.000001 -0.000000 -0.000000 0.000000 -0.673061 37.931770 84.928054 -27.235374 
-0.019426 -0.000000 0.405215 0.000010 -53.143298 0.000005 -2.994038 -2.330726 2.334238 -0.000000 0.125000 0.000000 3.904182 -2.169050 0.257880 0.000000 -0.000003 0.000000 -0.000000 -0.000001 -0.000000 -0.000000 -0.125000 0.000000 -0.000001 -2.825052 -0.000000 0.000000 0.000000 -0.000000 0.000000 -0.000002 0.000000 -0.000000 0.350000 0.675000 22.390557 2.651300 4.828038 13.078527 -0.792631 2.117751 -0.000000 -0.350000 0.675000 -20.392686 -29.052981 -9.960437 0.000001 0.000000 0.000000 0.000000 -0.000000 -0.673061 20.093006 83.708463 -2.372561 
-0.025875 -0.000000 0.274807 0.000021 -70.938761 0.000014 -3.967855 -3.130824 3.082726 -0.000000 0.125000 0.000000 5.203748 -2.884623 0.376215 -0.000001 -0.000000 -0.000000 -0.000000 -0.000000 0.000000 0.000000 -0.125000 0.000000 -0.000001 -3.762870 -0.000000 -0.000000 -0.000001 -0.000000 0.000000 0.000000 0.000000 0.000000 0.350000 0.675000 29.792377 3.922892 6.162678 17.428498 -0.946566 2.854433 -0.000000 -0.350000 0.675000 -22.937201 -9.436989 -7.734201 0.000001 -0.000000 -0.000000 0.000000 0.000000 -0.673061 -2.423102 81.845631 25.300764 
-0.030108 -0.000000 0.189216 0.000052 -81.959866 0.000042 -4.601455 -3.662574 3.566673 -0.000000 0.125000 0.000000 6.057631 -3.352555 0.462714 -0.000000 0.000000 -0.000000 -0.000000 -0.000000 0.000000 -0.000000 -0.125000 0.000000 -0.000001 -4.378295 -0.000000 -0.000000 -0.000000 0.000000 -0.000000 -0.000000 0.000000 -0.000000 0.350000 0.675000 34.588201 4.836049 6.937741 20.274409 -1.016821 3.341682 -0.000000 -0.350000 0.675000 -24.823955 2.468937 -5.984204 0.000001 -0.000000 -0.000000 -0.000000 -0.000000 -0.673061 -14.605385 79.913234 40.013205 
-0.031538 0.000000 0.160285 0.000010 -85.531379 0.000003 -4.814622 -3.843459 3.728933 -0.000000 0.125000 0.000000 6.346421 -3.510377 0.493530 -0.000000 -0.000000 0.000000 -0.000000 0.000000 -0.000000 0.000000 -0.125000 0.000000 -0.000001 -4.586293 -0.000000 -0.000000 0.000000 -0.000000 -0.000000 0.000000 -0.000000 0.000000 0.350000 0.675000 36.194730 5.156270 7.180321 21.233931 -1.035040 3.506651 -0.000000 -0.350000 0.675000 -25.510623 6.273200 -5.335675 0.000002 -0.000000 -0.000000 0.000000 -0.000000 -0.673061 -17.977323 79.163204 44.074750 
